<?xml version="1.0" standalone="no"?>
<!DOCTYPE svg PUBLIC "-//W3C//DTD SVG 20010904//EN"
 "http://www.w3.org/TR/2001/REC-SVG-20010904/DTD/svg10.dtd">
<svg version="1.0" xmlns="http://www.w3.org/2000/svg"
 width="700.000000pt" height="700.000000pt" viewBox="0 0 700.000000 700.000000"
 preserveAspectRatio="xMidYMid meet">
<metadata>
Created by potrace 1.11, written by Peter Selinger 2001-2013
</metadata>
<g transform="translate(0.000000,700.000000) scale(0.100000,-0.100000)"
fill="#000000" stroke="none">
<path d="M6877 6963 c-3 -2 -172 -15 -372 -28 -49 -3 -119 -8 -155 -10 -36 -3
-101 -7 -145 -10 -74 -5 -153 -10 -295 -20 -83 -6 -206 -15 -290 -20 -92 -6
-211 -14 -305 -20 -157 -12 -221 -16 -440 -30 -38 -3 -99 -7 -135 -10 -36 -3
-99 -7 -140 -10 -41 -2 -115 -7 -165 -10 -49 -3 -110 -8 -135 -10 -25 -3 -94
-7 -155 -11 -60 -3 -126 -7 -145 -9 -19 -2 -82 -6 -140 -10 -58 -3 -125 -8
-150 -10 -65 -5 -235 -17 -435 -29 -60 -4 -130 -9 -155 -11 -25 -2 -92 -7
-150 -10 -58 -3 -125 -8 -150 -10 -25 -2 -81 -6 -125 -9 -177 -12 -250 -18
-252 -20 -1 -1 39 -23 90 -49 159 -82 481 -250 667 -350 89 -47 144 -77 265
-144 50 -28 119 -66 155 -85 36 -19 81 -44 100 -55 19 -11 103 -58 185 -105
140 -79 451 -258 485 -278 8 -5 135 -81 281 -169 435 -260 874 -538 834 -527
-111 30 -696 221 -1070 349 -390 134 -1327 484 -1530 572 -16 7 -82 33 -145
58 -63 26 -186 76 -274 112 -87 36 -154 59 -149 53 114 -146 443 -578 651
-853 95 -126 185 -245 200 -264 15 -18 31 -40 36 -49 5 -8 14 -22 22 -31 7 -9
27 -34 43 -56 17 -22 34 -44 39 -50 4 -5 46 -62 92 -125 66 -90 322 -437 384
-520 12 -16 10 -15 -44 27 -53 41 -541 430 -566 452 -17 14 -40 33 -50 41 -79
63 -731 606 -928 774 -261 221 -431 364 -433 362 -1 -1 2 -19 8 -40 6 -21 12
-46 14 -55 2 -9 141 -567 310 -1240 168 -673 304 -1226 301 -1228 -3 -3 -21
28 -42 68 -20 41 -55 108 -76 149 -22 41 -65 122 -95 180 -31 58 -73 137 -93
175 -21 39 -68 129 -105 200 -37 72 -82 157 -100 190 -17 33 -69 132 -115 220
-46 88 -86 165 -90 170 -5 6 -103 198 -219 428 -116 230 -211 412 -212 405 0
-7 -2 -26 -3 -43 -2 -16 -6 -79 -10 -140 -4 -60 -9 -126 -11 -145 -2 -19 -7
-73 -10 -120 -3 -47 -8 -101 -10 -120 -2 -19 -6 -69 -10 -110 -3 -41 -8 -95
-10 -120 -3 -25 -7 -70 -10 -100 -3 -30 -7 -75 -10 -100 -2 -25 -7 -70 -10
-100 -3 -30 -8 -71 -10 -90 -3 -19 -7 -64 -10 -100 -4 -36 -8 -76 -10 -90 -3
-23 -9 -72 -20 -190 -3 -25 -7 -67 -10 -95 -5 -51 -10 -95 -20 -195 -3 -30
-10 -86 -15 -125 -9 -67 -18 -145 -26 -210 -1 -16 -6 -48 -9 -70 -3 -22 -8
-62 -10 -90 -3 -27 -9 -84 -15 -125 -5 -41 -11 -96 -14 -122 -9 -72 -17 -131
-21 -153 -2 -11 -4 -35 -4 -52 -1 -30 -17 -49 -18 -20 0 12 -11 134 -18 197
-2 19 -6 67 -10 105 -3 39 -8 88 -10 110 -2 22 -7 67 -10 100 -3 33 -8 78 -10
100 -2 22 -7 72 -10 110 -3 39 -8 84 -10 100 -2 17 -7 60 -10 95 -8 103 -16
183 -20 210 -2 14 -6 61 -10 105 -3 44 -8 91 -10 105 -2 14 -6 63 -10 110 -4
47 -8 99 -10 115 -2 17 -7 62 -10 100 -3 39 -8 81 -10 95 -2 14 -6 57 -10 95
-3 39 -8 90 -10 115 -2 25 -7 74 -10 110 -4 36 -8 83 -11 105 -2 22 -6 65 -9
95 -3 30 -7 75 -10 100 -2 25 -7 76 -10 113 -3 37 -7 82 -10 100 -5 38 -12
112 -30 321 -9 97 -20 84 -30 -34 -4 -47 -8 -87 -10 -90 -2 -3 -6 -39 -10 -80
-3 -41 -8 -82 -10 -90 -2 -8 -6 -46 -10 -85 -3 -38 -8 -81 -10 -95 -2 -14 -7
-50 -10 -80 -4 -30 -8 -66 -10 -80 -2 -14 -7 -54 -10 -90 -4 -36 -9 -72 -10
-80 -2 -8 -6 -46 -9 -85 -4 -38 -11 -106 -17 -150 -13 -104 -17 -138 -24 -205
-9 -83 -16 -142 -20 -170 -2 -14 -6 -50 -10 -80 -3 -30 -8 -77 -12 -105 -3
-27 -7 -61 -8 -75 -1 -14 -5 -47 -9 -75 -3 -27 -8 -72 -11 -100 -3 -27 -8 -66
-10 -85 -3 -19 -7 -55 -10 -80 -2 -25 -7 -61 -10 -80 -5 -44 -13 -107 -20
-185 -4 -33 -8 -71 -10 -85 -2 -14 -6 -47 -9 -75 -26 -231 -44 -380 -51 -435
-2 -19 -7 -60 -10 -90 -3 -30 -8 -71 -10 -90 -2 -19 -7 -60 -10 -90 -3 -30
-10 -91 -16 -135 -13 -109 -17 -141 -24 -205 -4 -30 -8 -66 -10 -80 -2 -14 -6
-52 -10 -85 -7 -68 -23 -210 -31 -270 -8 -62 -12 -102 -24 -210 -6 -55 -13
-111 -15 -125 -2 -14 -7 -54 -10 -90 -4 -36 -9 -78 -11 -95 -2 -16 -6 -55 -9
-85 -3 -30 -8 -66 -10 -80 -3 -14 -7 -50 -10 -80 -3 -30 -8 -73 -11 -95 -3
-22 -7 -60 -10 -85 -11 -106 -23 -212 -31 -265 -5 -41 -8 -67 -19 -165 -3 -30
-7 -66 -8 -81 l-3 -25 3453 0 3454 0 0 3455 0 3456 -31 0 c-17 0 -31 -1 -32
-2z m-1749 -3077 c15 -3 50 -8 77 -12 294 -37 638 -182 883 -372 l24 -19 -189
-269 -188 -270 -75 48 c-62 39 -149 88 -250 139 -244 122 -564 164 -750 98
-132 -47 -202 -140 -201 -267 1 -185 120 -263 601 -392 540 -145 746 -237 921
-410 159 -157 227 -338 227 -600 0 -395 -174 -690 -508 -863 -184 -95 -404
-146 -660 -151 -73 -2 -270 9 -320 18 -14 2 -44 7 -66 9 -23 3 -59 10 -80 16
-22 6 -55 13 -74 16 -106 18 -352 110 -495 186 -143 75 -401 259 -393 279 6
17 414 499 422 499 4 1 36 -21 71 -49 150 -119 350 -227 522 -279 96 -30 111
-33 203 -48 90 -15 321 -9 389 10 175 48 258 129 269 262 7 93 -11 147 -68
204 -83 82 -234 144 -580 236 -174 46 -458 134 -515 159 -119 54 -159 75 -230
122 -88 58 -140 105 -197 176 -41 50 -108 174 -108 198 0 9 -4 20 -8 25 -10
11 -28 93 -37 165 -21 172 -9 327 39 474 119 363 464 612 916 662 30 4 56 8
58 9 5 4 343 -4 370 -9z"/>
</g>
</svg>
